<svg width="180" height="64" viewBox="0 0 180 64" fill="none" xmlns="http://www.w3.org/2000/svg">
<path d="M0 0H180V64H0V0Z" fill="#055309"/>
<g style="mix-blend-mode:luminosity" filter="url(#filter0_dddd_9_37)">
<path d="M27.8381 43.1841C26.8352 42.7212 25.6469 43.159 25.1841 44.1619C24.7212 45.1648 25.159 46.3531 26.1619 46.8159L27.8381 43.1841ZM26.1619 46.8159C41.0852 53.7036 53.3361 55.3356 64.4098 54.4165C75.3955 53.5047 85.1693 50.0729 94.923 47.047C104.737 44.0026 114.665 41.3144 126.371 41.5551C138.056 41.7954 151.657 44.9614 168.718 53.8675L170.569 50.3216C153.058 41.1804 138.855 37.811 126.453 37.5559C114.072 37.3013 103.63 40.1579 93.7378 43.2266C83.7861 46.3139 74.5197 49.5637 64.079 50.4302C53.7264 51.2894 42.1648 49.7964 27.8381 43.1841L26.1619 46.8159Z" fill="#FFF2F2" fill-opacity="0.8"/>
</g>
<g style="mix-blend-mode:luminosity" filter="url(#filter1_ddd_9_37)">
<path d="M27.4 16C28.72 16 29.9067 16.2 30.96 16.6C32.0133 17 32.8467 17.5933 33.46 18.38C34.0867 19.1533 34.4 20.1 34.4 21.22H30.18C30.18 20.6467 29.9267 20.1867 29.42 19.84C28.9133 19.48 28.3 19.3 27.58 19.3C26.54 19.3 25.7533 19.58 25.22 20.14C24.6867 20.6867 24.42 21.4667 24.42 22.48V23.76C24.42 24.7733 24.6867 25.56 25.22 26.12C25.7533 26.6667 26.54 26.94 27.58 26.94C28.3 26.94 28.9133 26.7733 29.42 26.44C29.9267 26.0933 30.18 25.6533 30.18 25.12H27.06V22.32H34.4V30H32.12L31.68 28.64C30.4267 29.7067 28.7867 30.24 26.76 30.24C24.48 30.24 22.7667 29.6467 21.62 28.46C20.4733 27.26 19.9 25.48 19.9 23.12C19.9 20.7867 20.5467 19.02 21.84 17.82C23.1467 16.6067 25 16 27.4 16ZM50.2002 20.46C50.2002 21.3 49.9735 22.06 49.5202 22.74C49.0668 23.42 48.4068 23.92 47.5402 24.24L50.6002 30H45.6402L43.2002 24.98H41.5602V30H37.1402V16.24H45.5602C46.5468 16.24 47.3868 16.4333 48.0802 16.82C48.7868 17.1933 49.3135 17.7067 49.6602 18.36C50.0202 19 50.2002 19.7 50.2002 20.46ZM45.7002 20.64C45.7002 20.28 45.5802 19.98 45.3402 19.74C45.1002 19.5 44.8068 19.38 44.4602 19.38H41.5602V21.92H44.4602C44.8068 21.92 45.1002 21.8 45.3402 21.56C45.5802 21.3067 45.7002 21 45.7002 20.64ZM61.9266 30L61.3466 28.06H56.5266L55.9466 30H51.4266L56.4466 16.24H61.5866L66.6066 30H61.9266ZM57.4466 24.98H60.4266L58.9866 20.08H58.9066L57.4466 24.98ZM68.273 16.24H79.393V19.54H72.693V21.9H78.453V25.06H72.693V30H68.273V16.24ZM81.8128 30V16.24H86.2328V30H81.8128ZM95.3463 16.24C100.16 16.24 102.566 18.5333 102.566 23.12C102.566 27.7067 100.16 30 95.3463 30H89.3863V16.24H95.3463ZM93.8063 26.7H95.2663C97.1196 26.7 98.0463 25.7067 98.0463 23.72V22.52C98.0463 20.5333 97.1196 19.54 95.2663 19.54H93.8063V26.7ZM111.793 16C114.166 16 115.999 16.6067 117.293 17.82C118.586 19.0333 119.233 20.8 119.233 23.12C119.233 25.44 118.586 27.2067 117.293 28.42C115.999 29.6333 114.166 30.24 111.793 30.24C109.419 30.24 107.586 29.64 106.293 28.44C105.013 27.2267 104.373 25.4533 104.373 23.12C104.373 20.7867 105.013 19.02 106.293 17.82C107.586 16.6067 109.419 16 111.793 16ZM111.793 19.3C110.846 19.3 110.126 19.5867 109.633 20.16C109.139 20.7333 108.893 21.5067 108.893 22.48V23.76C108.893 24.7333 109.139 25.5067 109.633 26.08C110.126 26.6533 110.846 26.94 111.793 26.94C112.739 26.94 113.459 26.6533 113.953 26.08C114.459 25.5067 114.713 24.7333 114.713 23.76V22.48C114.713 21.5067 114.459 20.7333 113.953 20.16C113.459 19.5867 112.739 19.3 111.793 19.3ZM121.613 16.24H126.033V26.48H133.093V30H121.613V16.24ZM144.173 30L143.593 28.06H138.773L138.193 30H133.673L138.693 16.24H143.833L148.853 30H144.173ZM139.693 24.98H142.673L141.233 20.08H141.153L139.693 24.98ZM163.579 20.46C163.579 21.3 163.352 22.06 162.899 22.74C162.446 23.42 161.786 23.92 160.919 24.24L163.979 30H159.019L156.579 24.98H154.939V30H150.519V16.24H158.939C159.926 16.24 160.766 16.4333 161.459 16.82C162.166 17.1933 162.692 17.7067 163.039 18.36C163.399 19 163.579 19.7 163.579 20.46ZM159.079 20.64C159.079 20.28 158.959 19.98 158.719 19.74C158.479 19.5 158.186 19.38 157.839 19.38H154.939V21.92H157.839C158.186 21.92 158.479 21.8 158.719 21.56C158.959 21.3067 159.079 21 159.079 20.64Z" fill="white"/>
</g>
<defs>
<filter id="filter0_dddd_9_37" x="20.9995" y="37.5401" width="153.569" height="25.1108" filterUnits="userSpaceOnUse" color-interpolation-filters="sRGB">
<feFlood flood-opacity="0" result="BackgroundImageFix"/>
<feColorMatrix in="SourceAlpha" type="matrix" values="0 0 0 0 0 0 0 0 0 0 0 0 0 0 0 0 0 0 127 0" result="hardAlpha"/>
<feOffset dy="4"/>
<feGaussianBlur stdDeviation="2"/>
<feComposite in2="hardAlpha" operator="out"/>
<feColorMatrix type="matrix" values="0 0 0 0 0 0 0 0 0 0 0 0 0 0 0 0 0 0 0.25 0"/>
<feBlend mode="normal" in2="BackgroundImageFix" result="effect1_dropShadow_9_37"/>
<feColorMatrix in="SourceAlpha" type="matrix" values="0 0 0 0 0 0 0 0 0 0 0 0 0 0 0 0 0 0 127 0" result="hardAlpha"/>
<feOffset dy="4"/>
<feGaussianBlur stdDeviation="2"/>
<feComposite in2="hardAlpha" operator="out"/>
<feColorMatrix type="matrix" values="0 0 0 0 0 0 0 0 0 0 0 0 0 0 0 0 0 0 0.25 0"/>
<feBlend mode="normal" in2="effect1_dropShadow_9_37" result="effect2_dropShadow_9_37"/>
<feColorMatrix in="SourceAlpha" type="matrix" values="0 0 0 0 0 0 0 0 0 0 0 0 0 0 0 0 0 0 127 0" result="hardAlpha"/>
<feOffset dy="4"/>
<feGaussianBlur stdDeviation="2"/>
<feComposite in2="hardAlpha" operator="out"/>
<feColorMatrix type="matrix" values="0 0 0 0 0 0 0 0 0 0 0 0 0 0 0 0 0 0 0.25 0"/>
<feBlend mode="normal" in2="effect2_dropShadow_9_37" result="effect3_dropShadow_9_37"/>
<feColorMatrix in="SourceAlpha" type="matrix" values="0 0 0 0 0 0 0 0 0 0 0 0 0 0 0 0 0 0 127 0" result="hardAlpha"/>
<feOffset dy="4"/>
<feGaussianBlur stdDeviation="2"/>
<feComposite in2="hardAlpha" operator="out"/>
<feColorMatrix type="matrix" values="0 0 0 0 0 0 0 0 0 0 0 0 0 0 0 0 0 0 0.25 0"/>
<feBlend mode="normal" in2="effect3_dropShadow_9_37" result="effect4_dropShadow_9_37"/>
<feBlend mode="normal" in="SourceGraphic" in2="effect4_dropShadow_9_37" result="shape"/>
</filter>
<filter id="filter1_ddd_9_37" x="15.9" y="16" width="152.079" height="22.24" filterUnits="userSpaceOnUse" color-interpolation-filters="sRGB">
<feFlood flood-opacity="0" result="BackgroundImageFix"/>
<feColorMatrix in="SourceAlpha" type="matrix" values="0 0 0 0 0 0 0 0 0 0 0 0 0 0 0 0 0 0 127 0" result="hardAlpha"/>
<feOffset dy="4"/>
<feGaussianBlur stdDeviation="2"/>
<feComposite in2="hardAlpha" operator="out"/>
<feColorMatrix type="matrix" values="0 0 0 0 0 0 0 0 0 0 0 0 0 0 0 0 0 0 0.25 0"/>
<feBlend mode="normal" in2="BackgroundImageFix" result="effect1_dropShadow_9_37"/>
<feColorMatrix in="SourceAlpha" type="matrix" values="0 0 0 0 0 0 0 0 0 0 0 0 0 0 0 0 0 0 127 0" result="hardAlpha"/>
<feOffset dy="4"/>
<feGaussianBlur stdDeviation="2"/>
<feComposite in2="hardAlpha" operator="out"/>
<feColorMatrix type="matrix" values="0 0 0 0 0 0 0 0 0 0 0 0 0 0 0 0 0 0 0.25 0"/>
<feBlend mode="normal" in2="effect1_dropShadow_9_37" result="effect2_dropShadow_9_37"/>
<feColorMatrix in="SourceAlpha" type="matrix" values="0 0 0 0 0 0 0 0 0 0 0 0 0 0 0 0 0 0 127 0" result="hardAlpha"/>
<feOffset dy="4"/>
<feGaussianBlur stdDeviation="2"/>
<feComposite in2="hardAlpha" operator="out"/>
<feColorMatrix type="matrix" values="0 0 0 0 0 0 0 0 0 0 0 0 0 0 0 0 0 0 0.25 0"/>
<feBlend mode="normal" in2="effect2_dropShadow_9_37" result="effect3_dropShadow_9_37"/>
<feBlend mode="normal" in="SourceGraphic" in2="effect3_dropShadow_9_37" result="shape"/>
</filter>
</defs>
</svg>
